<!-- Generated by IcoMoon.io -->
<svg version="1.1" xmlns="http://www.w3.org/2000/svg" width="32" height="32" viewBox="0 0 32 32">
<title>icon-Navibar-notice</title>
<path d="M19.84 3.84c4.948 0 8.96 4.012 8.96 8.96v4.48l3.2 6.4v0.64c0 0.675-0.522 1.228-1.184 1.276l-0.096 0.003-7.093 0.001c-0.296 1.765-1.798 3.122-3.629 3.196l-0.158 0.003c-1.903 0-3.482-1.384-3.787-3.199l-7.093-0.001c-0.707 0-1.28-0.573-1.28-1.28v-0.64l3.2-6.4v-4.48c0-4.948 4.012-8.96 8.96-8.96zM21.651 25.601h-3.621c0.264 0.745 0.975 1.279 1.811 1.279s1.547-0.534 1.811-1.279zM19.84 5.76c-3.826 0-6.94 3.053-7.038 6.855l-0.002 0.185v4.48l-3.2 6.4h20.48l-3.2-6.4v-4.48c0-3.826-3.053-6.94-6.855-7.038l-0.185-0.002z"></path>
</svg>
