<!-- Generated by IcoMoon.io -->
<svg version="1.1" xmlns="http://www.w3.org/2000/svg" width="32" height="32" viewBox="0 0 32 32">
<title>icon-TabBar-favor-normal</title>
<path fill="#f8a120" d="M25.627 15.696c0.255-0.263 0.435-0.477 0.536-0.632 0.749-1.028 1.147-2.236 1.147-3.508 0-3.188-2.496-5.763-5.561-5.763-1.769 0-3.393 0.861-4.415 2.269-0.338 0.524-0.502 1.029-0.507 1.524l-1.655-0.008c0-0.492-0.163-0.997-0.481-1.491-1.044-1.439-2.667-2.294-4.441-2.294-3.065 0-5.561 2.574-5.561 5.763 0 1.564 0.593 3.020 1.649 4.11l0.129 0.129c0.573 0.602 3.758 3.963 9.533 10.060l9.627-10.159zM21.75 4.138c3.991 0 7.216 3.327 7.216 7.418 0 1.545-0.461 3.020-1.305 4.256l-0.123 0.175c-0.143 0.217-0.34 0.456-0.591 0.725l-9.998 10.546c-0.553 0.524-1.426 0.5-1.95-0.053l-9.707-10.245c-1.433-1.39-2.257-3.328-2.257-5.404 0-4.091 3.225-7.418 7.216-7.418 2.283 0 4.377 1.087 5.753 2.943 1.355-1.839 3.457-2.943 5.746-2.943zM25.096 9.436c-0.834-1.454-2.232-2.118-4.045-1.966l-0.177 0.017 0.182 1.645c1.272-0.141 2.086 0.226 2.603 1.128 0.494 0.861 0.452 1.585-0.142 2.338l-0.081 0.098 1.261 1.072c1.122-1.321 1.26-2.828 0.397-4.332z"></path>
</svg>
