<!-- Generated by IcoMoon.io -->
<svg version="1.1" xmlns="http://www.w3.org/2000/svg" width="32" height="32" viewBox="0 0 32 32">
<title>icon-select-disable-Large</title>
<path fill="#ccc" d="M16 0c8.837 0 16 7.163 16 16 0 8.725-6.983 15.818-15.665 15.997l-0.335 0.003c-8.837 0-16-7.163-16-16s7.163-16 16-16zM23.849 26.112l-17.962-17.962-0.035 0.048c-1.663 2.16-2.652 4.865-2.652 7.802 0 7.069 5.731 12.8 12.8 12.8 2.803 0 5.396-0.901 7.504-2.429l0.345-0.259zM16 3.2c-2.803 0-5.396 0.901-7.504 2.429l-0.346 0.258 17.962 17.962 0.036-0.047c1.663-2.16 2.652-4.865 2.652-7.802 0-7.069-5.731-12.8-12.8-12.8z"></path>
</svg>
