<!-- Generated by IcoMoon.io -->
<svg version="1.1" xmlns="http://www.w3.org/2000/svg" width="32" height="32" viewBox="0 0 32 32">
<title>icon-TabBar-selected-bag</title>
<path fill="#f8a120" d="M16.046 3.862c3.541 0 6.023 2.528 6.023 6.069h5.001l1.62 18.207h-25.379l1.655-18.207h4.966c0-3.541 2.574-6.069 6.115-6.069zM9.931 11.586l-3.351 0-1.339 14.897h21.517l-1.339-14.897-3.351-0v3.311h-1.655v-3.311h-8.828v3.311h-1.655v-3.311zM24 23.172c0.457 0 0.828 0.371 0.828 0.828s-0.371 0.828-0.828 0.828h-16c-0.457 0-0.828-0.371-0.828-0.828s0.371-0.828 0.828-0.828h16zM16.046 5.517c-2.628 0-4.459 1.785-4.459 4.414h8.828c0-2.628-1.74-4.414-4.368-4.414z"></path>
</svg>
