<!-- Generated by IcoMoon.io -->
<svg version="1.1" xmlns="http://www.w3.org/2000/svg" width="32" height="32" viewBox="0 0 32 32">
<title>icon-Navibar-camera</title>
<path d="M21.149 5.12l1.96 2.56h4.411c0.707 0 1.28 0.573 1.28 1.28v16.64c0 0.675-0.522 1.228-1.184 1.276l-0.096 0.003h-23.040c-0.707 0-1.28-0.573-1.28-1.28v-16.64c0-0.707 0.573-1.28 1.28-1.28h4.541l1.861-2.56h10.267zM20.201 7.040h-8.341l-1.861 2.56h-4.879v15.36h21.76v-15.36h-4.719l-1.96-2.56zM16 11.2c3.004 0 5.44 2.436 5.44 5.44 0 2.95-2.348 5.351-5.277 5.438l-0.163 0.002c-3.004 0-5.44-2.436-5.44-5.44s2.436-5.44 5.44-5.44zM16 13.12c-1.944 0-3.52 1.576-3.52 3.52s1.576 3.52 3.52 3.52c1.944 0 3.52-1.576 3.52-3.52s-1.576-3.52-3.52-3.52zM25.6 10.88v1.92h-3.2v-1.92h3.2z"></path>
</svg>
