<!-- Generated by IcoMoon.io -->
<svg version="1.1" xmlns="http://www.w3.org/2000/svg" width="32" height="32" viewBox="0 0 32 32">
<title>icon-TabBar-brand-selected</title>
<path fill="#f8a120" d="M28.138 4.414v23.724h-23.724v-23.724h23.724zM26.483 6.069h-14.797l-5.617 4.839v15.575h15.858l-0.054-1.626c-0.628 0.484-1.136 0.829-1.615 1.073-0.402 0.206-0.837 0.309-1.263 0.309-0.405 0-0.803-0.093-1.16-0.279-0.829-0.431-1.308-1.241-1.313-2.224-0.003-0.469 0.125-0.908 0.369-1.268 0.939-1.387 2.909-1.115 4.375-0.654l-0.024-0.245c-0.13-1.488 0.048-3.303 1.508-3.922 0.4-0.169 0.855-0.211 1.317-0.118 0.962 0.194 1.665 0.819 1.929 1.717 0.232 0.793 0.047 1.681-0.497 2.372-0.224 0.285-0.495 0.573-0.83 0.892l1.815 0.266v-16.707zM23.5 24.013l0.082 2.47h2.9v-2.034l-2.983-0.436zM9.15 6.069h-3.081v2.654l3.081-2.654z"></path>
</svg>
