<!-- Generated by IcoMoon.io -->
<svg version="1.1" xmlns="http://www.w3.org/2000/svg" width="32" height="32" viewBox="0 0 32 32">
<title>icon-Navibar-share</title>
<path d="M30.72 26.24c0 0.675-0.522 1.228-1.184 1.276l-0.096 0.003h-19.84c-0.707 0-1.28-0.573-1.28-1.28v-19.84c0-0.707 0.573-1.28 1.28-1.28h10.24v1.92h-9.6v18.56h18.56v-10.24h1.92v10.88zM26.88 4.8l5.12 3.84-0.96 1.6h-1.28c-5.354 0-10.431 4.735-10.558 8.806l-0.002 0.154h-1.92c0-5.721 5.76-10.24 10.88-10.88-0.205-0.205-0.999-0.803-2.384-1.794l-0.176-0.126 1.28-1.6z"></path>
</svg>
