<!-- Generated by IcoMoon.io -->
<svg version="1.1" xmlns="http://www.w3.org/2000/svg" width="32" height="32" viewBox="0 0 32 32">
<title>icon-Navibar-collectbrand-normal</title>
<path fill="#f5f5f5" d="M21.76 4.8c4.065 0 7.36 3.379 7.36 7.548 0 1.567-0.468 3.064-1.324 4.32l-0.138 0.196c-0.149 0.223-0.35 0.467-0.606 0.739l-9.926 10.083c-0.271 0.275-0.614 0.431-0.967 0.467l-0.106 0.007h-0.106c-0.389-0.013-0.774-0.171-1.073-0.474l-9.645-9.794c-1.49-1.416-2.35-3.408-2.35-5.544 0-4.168 3.295-7.548 7.36-7.548 2.267 0 4.354 1.049 5.763 2.857 1.385-1.79 3.482-2.857 5.757-2.857z"></path>
</svg>
