<!-- Generated by IcoMoon.io -->
<svg version="1.1" xmlns="http://www.w3.org/2000/svg" width="32" height="32" viewBox="0 0 32 32">
<title>icon-Navibar-service</title>
<path d="M16 2.56c7.069 0 12.8 5.731 12.8 12.8 0 5.515-5.12 9.92-8.32 12.8l-0.196 0.174-0.238 0.204c-0.464 0.392-1.084 0.888-1.859 1.488l-0.907 0.695h-0.64c-0.707 0-1.28-0.573-1.28-1.28v-1.92c-1.74-0.196-3.127-0.516-4.16-0.96-4.558-1.959-8-5.924-8-11.2 0-7.069 5.731-12.8 12.8-12.8zM16 4.48c-6.009 0-10.88 4.871-10.88 10.88 0 4.157 2.612 7.62 6.838 9.436 0.837 0.36 2.049 0.639 3.617 0.816l1.705 0.192v2.494l0.53-0.416 0.351-0.28c0.389-0.313 0.704-0.576 0.945-0.789l1.803-1.63 0.344-0.319c0.262-0.246 0.479-0.458 0.781-0.757 3.18-3.143 4.846-5.919 4.846-8.746 0-6.009-4.871-10.88-10.88-10.88zM21.76 17.28v1.92h-11.52v-1.92h11.52zM21.76 11.52v1.92h-11.52v-1.92h11.52z"></path>
</svg>
