<!-- Generated by IcoMoon.io -->
<svg version="1.1" xmlns="http://www.w3.org/2000/svg" width="32" height="32" viewBox="0 0 32 32">
<title>icon-Navibar-set</title>
<path d="M16 2.56l0.363 0.005c1.206 0.032 2.372 0.223 3.478 0.552l-0.001 0.083 0.003 0.144c0.074 2.006 1.687 3.619 3.693 3.693l0.144 0.003 0.203-0.005c0.539-0.028 1.048-0.167 1.505-0.395l0.169-0.089 0.21 0.217c1.521 1.609 2.649 3.593 3.23 5.799-1.256 0.631-2.118 1.932-2.118 3.433s0.862 2.802 2.118 3.433c-0.608 2.307-1.813 4.371-3.44 6.016-0.5-0.28-1.068-0.453-1.674-0.484l-0.203-0.005-0.144 0.003c-2.006 0.074-3.619 1.687-3.693 3.693l-0.004 0.227c-1.216 0.362-2.505 0.557-3.839 0.557-1.213 0-2.389-0.161-3.507-0.462l-0.334-0.095 0.001-0.083c0-2.073-1.642-3.762-3.696-3.837l-0.144-0.003-0.203 0.005c-0.606 0.032-1.175 0.204-1.674 0.484-1.627-1.646-2.833-3.71-3.44-6.016 1.256-0.631 2.118-1.932 2.118-3.433s-0.862-2.802-2.118-3.433c0.581-2.206 1.709-4.191 3.23-5.799l0.21-0.217 0.169 0.089c0.457 0.228 0.966 0.367 1.505 0.395l0.203 0.005 0.144-0.003c2.006-0.074 3.619-1.687 3.693-3.693l0.003-0.144-0.001-0.083c1.106-0.329 2.272-0.52 3.478-0.552l0.363-0.005zM16 4.48l-0.357 0.005c-0.593 0.018-1.178 0.081-1.753 0.187-0.651 2.468-2.898 4.288-5.57 4.288-0.359 0-0.714-0.033-1.061-0.098l-0.259-0.054-0.215 0.277c-0.632 0.841-1.147 1.765-1.529 2.747 1.116 1.065 1.783 2.557 1.783 4.168s-0.668 3.103-1.783 4.168c0.381 0.982 0.896 1.906 1.529 2.747l0.215 0.277 0.259-0.054c0.26-0.049 0.525-0.079 0.792-0.092l0.268-0.006 0.178 0.003c2.594 0.078 4.756 1.872 5.393 4.285 0.575 0.106 1.16 0.169 1.753 0.187l0.357 0.005 0.357-0.005c0.593-0.018 1.178-0.081 1.753-0.187 0.636-2.413 2.799-4.206 5.393-4.285l0.177-0.003 0.268 0.006c0.268 0.012 0.532 0.043 0.792 0.092l0.259 0.054 0.215-0.277c0.632-0.841 1.147-1.765 1.529-2.747-1.116-1.064-1.783-2.557-1.783-4.168s0.668-3.103 1.783-4.168c-0.381-0.982-0.896-1.906-1.529-2.747l-0.215-0.277-0.259 0.054c-0.347 0.065-0.702 0.098-1.061 0.098-2.672 0-4.919-1.82-5.57-4.288-0.575-0.106-1.16-0.169-1.753-0.187l-0.357-0.005zM16 10.88c2.828 0 5.12 2.292 5.12 5.12 0 2.774-2.207 5.033-4.961 5.118l-0.159 0.002c-2.828 0-5.12-2.292-5.12-5.12s2.292-5.12 5.12-5.12zM16 12.8c-1.767 0-3.2 1.433-3.2 3.2s1.433 3.2 3.2 3.2c1.767 0 3.2-1.433 3.2-3.2s-1.433-3.2-3.2-3.2z"></path>
</svg>
