<!-- Generated by IcoMoon.io -->
<svg version="1.1" xmlns="http://www.w3.org/2000/svg" width="32" height="32" viewBox="0 0 32 32">
<title>icon-like</title>
<path fill="#f8a120" d="M16.996-0.047c1.060 0 1.92 0.86 1.92 1.92l-0.006 0.147c-0.003 0.037-0.007 0.073-0.017 0.146l-0.983 6.383h9.846c2.062 0 3.733 1.671 3.733 3.733 0 0.166-0.011 0.332-0.033 0.497l-1.961 14.611c-0.355 2.648-2.615 4.624-5.286 4.624l-22.076-0.014c-1.178 0-2.133-0.955-2.133-2.133v-17.067c0-1.178 0.955-2.133 2.133-2.133l5.216-0.001 2.639-8.465c0.417-1.337 1.655-2.248 3.055-2.248h3.952zM15.504 3.153h-2.46l-3.444 10.708v14.942l14.61 0.011c1.012 0 1.877-0.71 2.086-1.685l0.029-0.165 1.961-14.611c0.003-0.024 0.005-0.047 0.005-0.071 0-0.262-0.189-0.48-0.437-0.525l-0.096-0.009h-13.576l1.324-8.596zM6.4 13.865l-3.2 0.002v14.933l3.2 0.001v-14.937z"></path>
</svg>
