<!-- Generated by IcoMoon.io -->
<svg version="1.1" xmlns="http://www.w3.org/2000/svg" width="32" height="32" viewBox="0 0 32 32">
<title>icon-Navibar-bag</title>
<path d="M16 3.2c4.113 0 6.4 3.251 6.4 6.4h4.101c0.661 0 1.214 0.504 1.275 1.162l1.659 17.92c0.065 0.704-0.453 1.327-1.157 1.393-0.039 0.004-0.079 0.005-0.118 0.005h-24.32c-0.707 0-1.28-0.573-1.28-1.28 0-0.040 0.002-0.080 0.006-0.121l1.695-17.92c0.062-0.657 0.614-1.159 1.274-1.159h4.065c0-3.143 2.287-6.4 6.4-6.4zM25.737 11.52h-3.338l0.001 3.2h-1.92l-0.001-3.2h-8.96l0.001 3.2h-1.92l-0.001-3.2h-3.339l-1.567 16.64h22.611l-1.567-16.64zM16 5.12c-2.535 0-4.48 2.293-4.48 4.48h8.96c0-2.199-1.945-4.48-4.48-4.48z"></path>
</svg>
