<!-- Generated by IcoMoon.io -->
<svg version="1.1" xmlns="http://www.w3.org/2000/svg" width="32" height="32" viewBox="0 0 32 32">
<title>icon-TabBar-selected-user</title>
<path fill="#f8a120" d="M16 3.31c6.998 0 12.69 5.693 12.69 12.69 0 6.927-5.579 12.576-12.48 12.688l-0.21 0.002c-6.998 0-12.69-5.693-12.69-12.69s5.692-12.69 12.69-12.69zM16 4.966l-0.19 0.002c-5.997 0.102-10.845 5.012-10.845 11.033s4.847 10.931 10.845 11.033l0.19 0.002 0.19-0.002c5.997-0.102 10.845-5.012 10.845-11.033s-4.847-10.931-10.845-11.033l-0.19-0.002zM16.169 24.274l-0.169 0.002c-3.955 0-7.172-3.218-7.172-7.172h1.655c0 3.042 2.475 5.517 5.517 5.517s5.517-2.475 5.517-5.517h1.655c0 3.898-3.126 7.080-7.003 7.17zM20.954 10.265l1.126 1.213-1.31 1.216 1.31 1.216-1.126 1.213-2.616-2.429 2.616-2.429zM11.591 10.717l0.108 0.003c1.075 0.056 1.929 0.945 1.929 2.034 0 1.125-0.912 2.037-2.037 2.037s-2.037-0.912-2.037-2.037c0-1.089 0.854-1.978 1.929-2.034l0.108-0.003z"></path>
</svg>
