<!-- Generated by IcoMoon.io -->
<svg version="1.1" xmlns="http://www.w3.org/2000/svg" width="32" height="32" viewBox="0 0 32 32">
<title>icon-TabBar-brand-normal</title>
<path d="M4.414 28.138h23.724v-23.724h-23.724v23.724zM23.5 24.013l2.983 0.436v2.034h-2.9l-0.082-2.47zM26.483 6.069v16.707l-1.814-0.266c0.296-0.281 0.542-0.539 0.749-0.791l0.081-0.1c0.543-0.692 0.729-1.579 0.497-2.372-0.264-0.898-0.967-1.523-1.929-1.717-0.462-0.093-0.916-0.052-1.317 0.118-1.542 0.654-1.654 2.64-1.484 4.168l-0.242-0.073c-1.434-0.413-3.245-0.586-4.133 0.726-0.243 0.361-0.371 0.799-0.369 1.268 0.005 0.983 0.483 1.793 1.313 2.224 0.358 0.186 0.755 0.279 1.16 0.279 0.426 0 0.861-0.103 1.263-0.308 0.479-0.245 0.986-0.59 1.615-1.073l0.054 1.626h-15.858v-15.575l5.617-4.839h14.797zM19.106 23.102c0.523 0 1.203 0.148 1.859 0.364-0.595 0.463-1.055 0.783-1.46 0.989-0.308 0.158-0.647 0.172-0.908 0.036l-0.051-0.028c-0.135-0.078-0.368-0.259-0.371-0.737-0.001-0.13 0.030-0.252 0.085-0.332 0.14-0.207 0.447-0.292 0.845-0.292zM23.588 19.136c0.048 0 0.099 0.005 0.151 0.015 0.535 0.108 0.632 0.437 0.668 0.56 0.083 0.281 0.004 0.612-0.21 0.884-0.28 0.356-0.682 0.747-1.254 1.243l-0.029-0.259c-0.11-1.12-0.016-2.199 0.481-2.41 0.054-0.023 0.12-0.034 0.193-0.034zM9.15 6.069l-3.081 2.654v-2.654h3.081z"></path>
</svg>
