<!-- Generated by IcoMoon.io -->
<svg version="1.1" xmlns="http://www.w3.org/2000/svg" width="32" height="32" viewBox="0 0 32 32">
<title>icon-Navibar-collect-normal</title>
<path d="M21.76 4.8c4.065 0 7.36 3.379 7.36 7.548 0 1.567-0.468 3.064-1.324 4.32l-0.138 0.196c-0.149 0.223-0.35 0.467-0.606 0.739l-9.926 10.083c-0.271 0.275-0.614 0.431-0.967 0.467l-0.106 0.007h-0.106c-0.389-0.013-0.774-0.171-1.073-0.474l-9.645-9.794c-1.49-1.416-2.35-3.408-2.35-5.544 0-4.168 3.295-7.548 7.36-7.548 2.267 0 4.354 1.049 5.763 2.857 1.385-1.79 3.482-2.857 5.757-2.857zM21.76 6.769c-1.736 0-3.328 0.839-4.321 2.198-0.289 0.446-0.443 0.871-0.474 1.284l-0.006 0.137-1.92-0.010c0-0.452-0.153-0.921-0.449-1.379-1.020-1.398-2.61-2.23-4.351-2.23-3.004 0-5.44 2.498-5.44 5.579 0 1.515 0.581 2.926 1.615 3.981l9.585 9.729 9.734-9.891c0.132-0.144 0.235-0.267 0.306-0.367l0.039-0.057c0.734-1.002 1.121-2.167 1.121-3.395 0-3.081-2.436-5.579-5.44-5.579z"></path>
</svg>
