<!-- Generated by IcoMoon.io -->
<svg version="1.1" xmlns="http://www.w3.org/2000/svg" width="32" height="32" viewBox="0 0 32 32">
<title>icon-visible-disabled</title>
<path fill="#ccc" d="M26.719 7.16l1.61 1.919-21.449 17.998-1.61-1.919 6.016-5.049c-0.056-0.294-0.086-0.598-0.086-0.909 0-2.651 2.149-4.8 4.8-4.8 0.604 0 1.183 0.112 1.715 0.316l4.069-3.415c-1.775-0.839-3.701-1.255-5.784-1.255-5.834 0-10.44 3.263-13.92 9.954l-2.080-1.159c3.869-7.439 9.236-11.241 16-11.241 2.85 0 5.451 0.675 7.797 2.012l2.922-2.452zM20.447 17.39c0.227 0.558 0.353 1.169 0.353 1.81 0 2.651-2.149 4.8-4.8 4.8-0.939 0-1.815-0.269-2.554-0.735l7.001-5.874zM32 18.841l-2.080 1.159c-1.423-2.735-3.033-4.898-4.839-6.498l1.86-1.562c1.9 1.768 3.588 4.071 5.059 6.901z"></path>
</svg>
