<!-- Generated by IcoMoon.io -->
<svg version="1.1" xmlns="http://www.w3.org/2000/svg" width="32" height="32" viewBox="0 0 32 32">
<title>icon-expand-normal</title>
<path fill="#ccc" d="M13.867 18.133v8.533c0 2.356-1.91 4.267-4.267 4.267h-4.267c-2.356 0-4.267-1.91-4.267-4.267v-4.267c0-2.356 1.91-4.267 4.267-4.267h8.533zM26.667 18.133c2.356 0 4.267 1.91 4.267 4.267v4.267c0 2.356-1.91 4.267-4.267 4.267h-4.267c-2.356 0-4.267-1.91-4.267-4.267v-8.533h8.533zM9.6 1.067c2.356 0 4.267 1.91 4.267 4.267v8.533h-8.533c-2.356 0-4.267-1.91-4.267-4.267v-4.267c0-2.356 1.91-4.267 4.267-4.267h4.267zM26.667 1.067c2.356 0 4.267 1.91 4.267 4.267v4.267c0 2.356-1.91 4.267-4.267 4.267h-8.533v-8.533c0-2.356 1.91-4.267 4.267-4.267h4.267z"></path>
</svg>
