<!-- Generated by IcoMoon.io -->
<svg version="1.1" xmlns="http://www.w3.org/2000/svg" width="32" height="32" viewBox="0 0 32 32">
<title>icon-Navibar-networkanomaly</title>
<path d="M25.28 16c3.358 0 6.080 2.722 6.080 6.080 0 3.3-2.629 5.986-5.907 6.078l-0.173 0.002c-3.358 0-6.080-2.722-6.080-6.080s2.722-6.080 6.080-6.080zM15.36 23.040c1.060 0 1.92 0.86 1.92 1.92 0 1.023-0.799 1.858-1.807 1.917l-0.113 0.003c-1.060 0-1.92-0.86-1.92-1.92s0.86-1.92 1.92-1.92zM25.28 17.92c-2.297 0-4.16 1.863-4.16 4.16s1.863 4.16 4.16 4.16c2.297 0 4.16-1.863 4.16-4.16s-1.863-4.16-4.16-4.16zM26.24 23.68v1.92h-1.92v-1.92h1.92zM26.24 18.56v4.48h-1.92v-4.48h1.92zM15.36 17.28c1.102 0 2.158 0.199 3.133 0.563-0.291 0.465-0.535 0.961-0.726 1.483l-0.091 0.263c-0.725-0.252-1.504-0.389-2.315-0.389-1.993 0-3.793 0.828-5.073 2.159l-0.14 0.15-1.339-1.38c1.636-1.753 3.966-2.849 6.552-2.849zM15.36 11.52c3.159 0 6.086 0.995 8.484 2.689-0.734 0.133-1.433 0.366-2.083 0.684l-0.241 0.123c-1.827-1.005-3.927-1.577-6.16-1.577-3.531 0-6.728 1.43-9.044 3.742l-0.186 0.189-1.338-1.379c2.675-2.758 6.421-4.472 10.567-4.472zM15.36 5.76c5.706 0 10.867 2.333 14.58 6.098l-1.338 1.378c-3.368-3.429-8.057-5.556-13.242-5.556-5.080 0-9.683 2.041-13.035 5.347l-0.208 0.208-1.338-1.378c3.714-3.765 8.875-6.098 14.58-6.098z"></path>
</svg>
