<!-- Generated by IcoMoon.io -->
<svg version="1.1" xmlns="http://www.w3.org/2000/svg" width="32" height="32" viewBox="0 0 32 32">
<title>icon-Navibar-search</title>
<path d="M14.72 23.040c4.595 0 8.32-3.725 8.32-8.32s-3.725-8.32-8.32-8.32c-4.595 0-8.32 3.725-8.32 8.32s3.725 8.32 8.32 8.32zM14.72 4.48c5.655 0 10.24 4.585 10.24 10.24 0 2.645-1.003 5.056-2.65 6.874l4.958 4.957-1.358 1.358-5.017-5.018c-1.716 1.299-3.855 2.069-6.173 2.069-5.655 0-10.24-4.585-10.24-10.24s4.585-10.24 10.24-10.24z"></path>
</svg>
