<!-- Generated by IcoMoon.io -->
<svg version="1.1" xmlns="http://www.w3.org/2000/svg" width="32" height="32" viewBox="0 0 32 32">
<title>icon-Navibar-img</title>
<path d="M29.44 3.84c0.707 0 1.28 0.573 1.28 1.28v21.76c0 0.707-0.573 1.28-1.28 1.28h-26.88c-0.707 0-1.28-0.573-1.28-1.28v-21.76c0-0.707 0.573-1.28 1.28-1.28h26.88zM28.8 5.76h-25.6v20.48h1.964l17.155-15.372 6.481 7.668v-12.776zM22.128 13.617l-14.087 12.623h20.758v-4.731l-6.672-7.892zM10.24 8.64c2.297 0 4.16 1.863 4.16 4.16s-1.863 4.16-4.16 4.16c-2.297 0-4.16-1.863-4.16-4.16s1.862-4.16 4.16-4.16zM10.24 10.56c-1.237 0-2.24 1.003-2.24 2.24s1.003 2.24 2.24 2.24c1.237 0 2.24-1.003 2.24-2.24s-1.003-2.24-2.24-2.24z"></path>
</svg>
