<!-- Generated by IcoMoon.io -->
<svg version="1.1" xmlns="http://www.w3.org/2000/svg" width="32" height="32" viewBox="0 0 32 32">
<title>icon-TabBar-top-normal</title>
<path fill="#f8a120" d="M21.466 26.983v-6.018l5.985 0.011-11.45-11.136-11.454 11.14h5.436v6.003h11.482zM16.963 8.467l12.13 11.798c0.546 0.531 0.558 1.404 0.027 1.95-0.26 0.268-0.618 0.418-0.991 0.418l-5.008-0.009v6.015h-14.793v-6.003h-4.46c-0.762 0-1.379-0.618-1.379-1.379 0-0.372 0.151-0.729 0.418-0.989l12.133-11.801c0.535-0.521 1.388-0.521 1.923 0zM26.483 4.414v1.655h-20.966v-1.655h20.966z"></path>
</svg>
