<!-- Generated by IcoMoon.io -->
<svg version="1.1" xmlns="http://www.w3.org/2000/svg" width="32" height="32" viewBox="0 0 32 32">
<title>icon-step</title>
<path fill="#ccc" d="M16 0c8.837 0 16 7.163 16 16s-7.163 16-16 16c-8.837 0-16-7.163-16-16s7.163-16 16-16zM16 3.2c-7.069 0-12.8 5.731-12.8 12.8s5.731 12.8 12.8 12.8c7.069 0 12.8-5.731 12.8-12.8s-5.731-12.8-12.8-12.8zM16 8.533c4.124 0 7.467 3.343 7.467 7.467s-3.343 7.467-7.467 7.467c-4.124 0-7.467-3.343-7.467-7.467s3.343-7.467 7.467-7.467z"></path>
</svg>
