<!-- Generated by IcoMoon.io -->
<svg version="1.1" xmlns="http://www.w3.org/2000/svg" width="32" height="32" viewBox="0 0 32 32">
<title>icon-TabBar-user--normal</title>
<path d="M16 3.31c6.998 0 12.69 5.693 12.69 12.69 0 6.927-5.579 12.576-12.48 12.688l-0.21 0.002c-6.998 0-12.69-5.693-12.69-12.69s5.692-12.69 12.69-12.69zM16 4.966l-0.19 0.002c-5.997 0.102-10.845 5.012-10.845 11.033s4.847 10.931 10.845 11.033l0.19 0.002 0.19-0.002c5.997-0.102 10.845-5.012 10.845-11.033s-4.847-10.931-10.845-11.033l-0.19-0.002zM23.17 17.272c-0.089 3.82-3.179 6.911-6.999 7.001l-0.171 0.002c-3.898 0-7.080-3.126-7.17-7.003l-0.002-0.169h1.655l0.002 0.154c0.081 2.92 2.441 5.28 5.361 5.361l0.154 0.002 0.154-0.002c2.92-0.081 5.28-2.441 5.361-5.361l0.002-0.154h1.655l-0.002 0.169z"></path>
</svg>
