<!-- Generated by IcoMoon.io -->
<svg version="1.1" xmlns="http://www.w3.org/2000/svg" width="32" height="32" viewBox="0 0 32 32">
<title>icon-Navibar-camera-self</title>
<path d="M3.2 8.32v18.56h25.6v-18.56h-6.207l-1.92-3.2h-9.346l-1.92 3.2h-6.207zM2.56 6.4h5.76l1.92-3.2h11.52l1.92 3.2h5.76c0.707 0 1.28 0.573 1.28 1.28v19.84c0 0.707-0.573 1.28-1.28 1.28h-26.88c-0.707 0-1.28-0.573-1.28-1.28v-19.84c0-0.707 0.573-1.28 1.28-1.28zM22.272 21.12l-3.2-5.12h6.4l-3.2 5.12zM13.511 12.422l-0.862-1.716c2.687-1.35 5.958-0.938 8.23 1.108s3.024 5.256 1.963 8.069l-1.796-0.678c0.785-2.080 0.229-4.452-1.451-5.965s-4.098-1.817-6.084-0.819zM9.728 13.44l3.2 5.12h-6.4l3.2-5.12zM18.485 22.144l0.862 1.716c-2.687 1.35-5.958 0.938-8.23-1.108s-3.024-5.256-1.963-8.069l1.796 0.678c-0.785 2.080-0.229 4.452 1.451 5.965s4.098 1.817 6.084 0.819z"></path>
</svg>
